<mxfile host="65bd71144e">
    <diagram id="3AgLucLyVqsbR0VRtILY" name="Page-1">
        <mxGraphModel dx="1060" dy="505" grid="1" gridSize="10" guides="1" tooltips="1" connect="1" arrows="1" fold="1" page="1" pageScale="1" pageWidth="2600" pageHeight="900" math="0" shadow="0">
            <root>
                <mxCell id="0"/>
                <mxCell id="1" parent="0"/>
                <mxCell id="2" style="edgeStyle=none;html=1;exitX=0.5;exitY=1;exitDx=0;exitDy=0;entryX=0.5;entryY=0;entryDx=0;entryDy=0;" edge="1" parent="1" source="3" target="5">
                    <mxGeometry relative="1" as="geometry"/>
                </mxCell>
                <mxCell id="3" value="amount_1 = 0" style="rounded=1;whiteSpace=wrap;html=1;" vertex="1" parent="1">
                    <mxGeometry x="21" y="219" width="120" height="60" as="geometry"/>
                </mxCell>
                <mxCell id="4" style="edgeStyle=none;html=1;exitX=0.5;exitY=1;exitDx=0;exitDy=0;entryX=0.5;entryY=0;entryDx=0;entryDy=0;" edge="1" parent="1" source="5" target="7">
                    <mxGeometry relative="1" as="geometry"/>
                </mxCell>
                <mxCell id="5" value="&lt;span style=&quot;color: rgb(0, 0, 0);&quot;&gt;amount_2 = 0&lt;/span&gt;" style="rounded=1;whiteSpace=wrap;html=1;" vertex="1" parent="1">
                    <mxGeometry x="21" y="309" width="120" height="60" as="geometry"/>
                </mxCell>
                <mxCell id="6" style="edgeStyle=none;html=1;exitX=0.5;exitY=1;exitDx=0;exitDy=0;" edge="1" parent="1" source="7" target="9">
                    <mxGeometry relative="1" as="geometry"/>
                </mxCell>
                <mxCell id="7" value="&lt;span style=&quot;color: rgb(0, 0, 0);&quot;&gt;amount_3 = 0&lt;/span&gt;" style="rounded=1;whiteSpace=wrap;html=1;" vertex="1" parent="1">
                    <mxGeometry x="21" y="389" width="120" height="60" as="geometry"/>
                </mxCell>
                <mxCell id="8" style="edgeStyle=none;html=1;exitX=0.5;exitY=1;exitDx=0;exitDy=0;entryX=0.5;entryY=0;entryDx=0;entryDy=0;" edge="1" parent="1" source="9" target="11">
                    <mxGeometry relative="1" as="geometry"/>
                </mxCell>
                <mxCell id="9" value="&lt;span style=&quot;color: rgb(0, 0, 0);&quot;&gt;amount_4 = 0&lt;/span&gt;" style="rounded=1;whiteSpace=wrap;html=1;" vertex="1" parent="1">
                    <mxGeometry x="21" y="489" width="120" height="60" as="geometry"/>
                </mxCell>
                <mxCell id="10" style="edgeStyle=none;html=1;exitX=1;exitY=0.5;exitDx=0;exitDy=0;entryX=0;entryY=0.5;entryDx=0;entryDy=0;" edge="1" parent="1" source="11" target="13">
                    <mxGeometry relative="1" as="geometry"/>
                </mxCell>
                <mxCell id="11" value="&lt;span style=&quot;color: rgb(0, 0, 0);&quot;&gt;amount_5 = 0&lt;/span&gt;" style="rounded=1;whiteSpace=wrap;html=1;" vertex="1" parent="1">
                    <mxGeometry x="21" y="579" width="120" height="60" as="geometry"/>
                </mxCell>
                <mxCell id="12" style="edgeStyle=none;html=1;exitX=1;exitY=0.5;exitDx=0;exitDy=0;entryX=0;entryY=0.5;entryDx=0;entryDy=0;" edge="1" parent="1" source="13" target="14">
                    <mxGeometry relative="1" as="geometry">
                        <mxPoint x="241" y="549" as="targetPoint"/>
                    </mxGeometry>
                </mxCell>
                <mxCell id="13" value="total = 0" style="rounded=1;whiteSpace=wrap;html=1;" vertex="1" parent="1">
                    <mxGeometry x="181" y="579" width="120" height="60" as="geometry"/>
                </mxCell>
                <mxCell id="14" value="Button Clicked?" style="rhombus;whiteSpace=wrap;html=1;" vertex="1" parent="1">
                    <mxGeometry x="341.5" y="559" width="99" height="100" as="geometry"/>
                </mxCell>
                <mxCell id="15" style="edgeStyle=none;html=1;exitX=0.5;exitY=1;exitDx=0;exitDy=0;entryX=0.5;entryY=0;entryDx=0;entryDy=0;" edge="1" parent="1" source="16" target="75">
                    <mxGeometry relative="1" as="geometry"/>
                </mxCell>
                <mxCell id="16" value="Start" style="ellipse;whiteSpace=wrap;html=1;" vertex="1" parent="1">
                    <mxGeometry x="21" y="36" width="120" height="80" as="geometry"/>
                </mxCell>
                <mxCell id="17" value="Yes" style="edgeStyle=none;html=1;exitX=1;exitY=0.5;exitDx=0;exitDy=0;entryX=0;entryY=0.5;entryDx=0;entryDy=0;" edge="1" parent="1" source="14" target="22">
                    <mxGeometry relative="1" as="geometry">
                        <mxPoint x="431" y="609" as="sourcePoint"/>
                        <mxPoint x="511" y="609" as="targetPoint"/>
                    </mxGeometry>
                </mxCell>
                <mxCell id="18" value="Yes" style="edgeStyle=none;html=1;exitX=0.5;exitY=1;exitDx=0;exitDy=0;" edge="1" parent="1" source="20">
                    <mxGeometry relative="1" as="geometry">
                        <mxPoint x="1070" y="716" as="targetPoint"/>
                    </mxGeometry>
                </mxCell>
                <mxCell id="19" value="No" style="edgeStyle=none;html=1;exitX=1;exitY=0.5;exitDx=0;exitDy=0;" edge="1" parent="1" source="20">
                    <mxGeometry relative="1" as="geometry">
                        <mxPoint x="1210" y="609" as="targetPoint"/>
                    </mxGeometry>
                </mxCell>
                <mxCell id="20" value="Add Straw button&lt;div&gt;clicked?&lt;/div&gt;" style="rhombus;whiteSpace=wrap;html=1;" vertex="1" parent="1">
                    <mxGeometry x="1020" y="559" width="100" height="100" as="geometry"/>
                </mxCell>
                <mxCell id="21" value="No" style="edgeStyle=none;html=1;exitX=1;exitY=0.5;exitDx=0;exitDy=0;" edge="1" parent="1" source="22">
                    <mxGeometry relative="1" as="geometry">
                        <mxPoint x="690" y="609" as="targetPoint"/>
                    </mxGeometry>
                </mxCell>
                <mxCell id="22" value="Add Lemonade&amp;nbsp;&lt;div&gt;button clicked?&lt;/div&gt;" style="rhombus;whiteSpace=wrap;html=1;" vertex="1" parent="1">
                    <mxGeometry x="510" y="559" width="100" height="100" as="geometry"/>
                </mxCell>
                <mxCell id="23" value="No" style="edgeStyle=none;html=1;exitX=1;exitY=0.5;exitDx=0;exitDy=0;" edge="1" parent="1" source="24">
                    <mxGeometry relative="1" as="geometry">
                        <mxPoint x="850" y="609" as="targetPoint"/>
                    </mxGeometry>
                </mxCell>
                <mxCell id="24" value="Add Pink flavor&amp;nbsp;&lt;div&gt;button clicked?&lt;/div&gt;" style="rhombus;whiteSpace=wrap;html=1;" vertex="1" parent="1">
                    <mxGeometry x="690" y="559" width="100" height="100" as="geometry"/>
                </mxCell>
                <mxCell id="25" value="Yes" style="edgeStyle=none;html=1;exitX=0.5;exitY=1;exitDx=0;exitDy=0;" edge="1" parent="1" source="24">
                    <mxGeometry relative="1" as="geometry">
                        <mxPoint x="740" y="716" as="targetPoint"/>
                        <mxPoint x="570" y="669" as="sourcePoint"/>
                    </mxGeometry>
                </mxCell>
                <mxCell id="26" value="Yes" style="edgeStyle=none;html=1;exitX=0.5;exitY=1;exitDx=0;exitDy=0;" edge="1" parent="1" source="28">
                    <mxGeometry relative="1" as="geometry">
                        <mxPoint x="900" y="716" as="targetPoint"/>
                    </mxGeometry>
                </mxCell>
                <mxCell id="27" value="No" style="edgeStyle=none;html=1;exitX=1;exitY=0.5;exitDx=0;exitDy=0;" edge="1" parent="1" source="28">
                    <mxGeometry relative="1" as="geometry">
                        <mxPoint x="1020" y="609" as="targetPoint"/>
                    </mxGeometry>
                </mxCell>
                <mxCell id="28" value="Add Large cup&lt;div&gt;button clicked?&lt;/div&gt;" style="rhombus;whiteSpace=wrap;html=1;" vertex="1" parent="1">
                    <mxGeometry x="850" y="559" width="100" height="100" as="geometry"/>
                </mxCell>
                <mxCell id="29" value="Yes" style="edgeStyle=none;html=1;exitX=0.5;exitY=1;exitDx=0;exitDy=0;" edge="1" parent="1" source="32">
                    <mxGeometry relative="1" as="geometry">
                        <mxPoint x="1260" y="716" as="targetPoint"/>
                    </mxGeometry>
                </mxCell>
                <mxCell id="32" value="Add Ice button clicked?" style="rhombus;whiteSpace=wrap;html=1;" vertex="1" parent="1">
                    <mxGeometry x="1210" y="559" width="100" height="100" as="geometry"/>
                </mxCell>
                <mxCell id="33" value="Yes" style="edgeStyle=none;html=1;exitX=0.5;exitY=1;exitDx=0;exitDy=0;" edge="1" parent="1" source="22">
                    <mxGeometry relative="1" as="geometry">
                        <mxPoint x="560" y="716" as="targetPoint"/>
                        <mxPoint x="560" y="659" as="sourcePoint"/>
                    </mxGeometry>
                </mxCell>
                <mxCell id="34" value="No" style="edgeStyle=none;html=1;exitX=0.5;exitY=0;exitDx=0;exitDy=0;" edge="1" parent="1" source="14">
                    <mxGeometry relative="1" as="geometry">
                        <mxPoint x="320" y="609" as="targetPoint"/>
                        <Array as="points">
                            <mxPoint x="320" y="559"/>
                        </Array>
                    </mxGeometry>
                </mxCell>
                <mxCell id="35" value="Call add_1()" style="ellipse;whiteSpace=wrap;html=1;" vertex="1" parent="1">
                    <mxGeometry x="500" y="716" width="120" height="80" as="geometry"/>
                </mxCell>
                <mxCell id="36" value="No" style="edgeStyle=none;html=1;exitX=1;exitY=0.5;exitDx=0;exitDy=0;" edge="1" parent="1">
                    <mxGeometry relative="1" as="geometry">
                        <mxPoint x="1400" y="609" as="targetPoint"/>
                        <mxPoint x="1310" y="609" as="sourcePoint"/>
                    </mxGeometry>
                </mxCell>
                <mxCell id="37" value="Yes" style="edgeStyle=none;html=1;exitX=0.5;exitY=1;exitDx=0;exitDy=0;" edge="1" parent="1" source="38">
                    <mxGeometry relative="1" as="geometry">
                        <mxPoint x="1450" y="716" as="targetPoint"/>
                    </mxGeometry>
                </mxCell>
                <mxCell id="94" value="No" style="edgeStyle=none;html=1;exitX=1;exitY=0.5;exitDx=0;exitDy=0;" edge="1" parent="1" source="38">
                    <mxGeometry relative="1" as="geometry">
                        <mxPoint x="1570.0000000000005" y="609.1111111111111" as="targetPoint"/>
                    </mxGeometry>
                </mxCell>
                <mxCell id="38" value="Less Lemonade button&amp;nbsp;&lt;span style=&quot;background-color: transparent;&quot;&gt;clikced?&lt;/span&gt;" style="rhombus;whiteSpace=wrap;html=1;" vertex="1" parent="1">
                    <mxGeometry x="1400" y="559" width="100" height="100" as="geometry"/>
                </mxCell>
                <mxCell id="39" value="Call add_2()" style="ellipse;whiteSpace=wrap;html=1;" vertex="1" parent="1">
                    <mxGeometry x="680" y="716" width="120" height="80" as="geometry"/>
                </mxCell>
                <mxCell id="40" value="Call add_3()" style="ellipse;whiteSpace=wrap;html=1;" vertex="1" parent="1">
                    <mxGeometry x="840" y="716" width="120" height="80" as="geometry"/>
                </mxCell>
                <mxCell id="41" value="Call add_4()" style="ellipse;whiteSpace=wrap;html=1;" vertex="1" parent="1">
                    <mxGeometry x="1010" y="716" width="120" height="80" as="geometry"/>
                </mxCell>
                <mxCell id="42" value="Call add_5()" style="ellipse;whiteSpace=wrap;html=1;" vertex="1" parent="1">
                    <mxGeometry x="1200" y="716" width="120" height="80" as="geometry"/>
                </mxCell>
                <mxCell id="43" value="Call less_1()" style="ellipse;whiteSpace=wrap;html=1;" vertex="1" parent="1">
                    <mxGeometry x="1390" y="716" width="120" height="80" as="geometry"/>
                </mxCell>
                <mxCell id="44" style="edgeStyle=none;html=1;exitX=0.5;exitY=1;exitDx=0;exitDy=0;" edge="1" parent="1" source="45">
                    <mxGeometry relative="1" as="geometry">
                        <mxPoint x="249.33333333333348" y="163" as="targetPoint"/>
                    </mxGeometry>
                </mxCell>
                <mxCell id="45" value="add_1" style="ellipse;whiteSpace=wrap;html=1;" vertex="1" parent="1">
                    <mxGeometry x="190" y="36" width="120" height="80" as="geometry"/>
                </mxCell>
                <mxCell id="46" style="edgeStyle=none;html=1;exitX=0.5;exitY=1;exitDx=0;exitDy=0;" edge="1" parent="1" source="47">
                    <mxGeometry relative="1" as="geometry">
                        <mxPoint x="249.33333333333348" y="273" as="targetPoint"/>
                    </mxGeometry>
                </mxCell>
                <mxCell id="47" value="add one unit to amount_1" style="rounded=1;whiteSpace=wrap;html=1;" vertex="1" parent="1">
                    <mxGeometry x="190" y="163" width="120" height="60" as="geometry"/>
                </mxCell>
                <mxCell id="48" value="amount_enter_a text becomes amount_1" style="rounded=1;whiteSpace=wrap;html=1;" vertex="1" parent="1">
                    <mxGeometry x="190" y="273" width="120" height="60" as="geometry"/>
                </mxCell>
                <mxCell id="49" style="edgeStyle=none;html=1;exitX=0.5;exitY=1;exitDx=0;exitDy=0;" edge="1" parent="1" source="50">
                    <mxGeometry relative="1" as="geometry">
                        <mxPoint x="409.3333333333335" y="163" as="targetPoint"/>
                    </mxGeometry>
                </mxCell>
                <mxCell id="50" value="add_2" style="ellipse;whiteSpace=wrap;html=1;" vertex="1" parent="1">
                    <mxGeometry x="350" y="36" width="120" height="80" as="geometry"/>
                </mxCell>
                <mxCell id="51" style="edgeStyle=none;html=1;exitX=0.5;exitY=1;exitDx=0;exitDy=0;" edge="1" parent="1" source="52">
                    <mxGeometry relative="1" as="geometry">
                        <mxPoint x="409.3333333333335" y="273" as="targetPoint"/>
                    </mxGeometry>
                </mxCell>
                <mxCell id="52" value="add one unit to amount_2" style="rounded=1;whiteSpace=wrap;html=1;" vertex="1" parent="1">
                    <mxGeometry x="350" y="163" width="120" height="60" as="geometry"/>
                </mxCell>
                <mxCell id="78" value="" style="edgeStyle=none;html=1;" edge="1" parent="1" source="53" target="77">
                    <mxGeometry relative="1" as="geometry"/>
                </mxCell>
                <mxCell id="53" value="amount_enter_b text becomes amount_2" style="rounded=1;whiteSpace=wrap;html=1;" vertex="1" parent="1">
                    <mxGeometry x="350" y="273" width="120" height="60" as="geometry"/>
                </mxCell>
                <mxCell id="54" style="edgeStyle=none;html=1;exitX=0.5;exitY=1;exitDx=0;exitDy=0;" edge="1" parent="1" source="55">
                    <mxGeometry relative="1" as="geometry">
                        <mxPoint x="559.3333333333335" y="163" as="targetPoint"/>
                    </mxGeometry>
                </mxCell>
                <mxCell id="55" value="add_3" style="ellipse;whiteSpace=wrap;html=1;" vertex="1" parent="1">
                    <mxGeometry x="500" y="36" width="120" height="80" as="geometry"/>
                </mxCell>
                <mxCell id="56" style="edgeStyle=none;html=1;exitX=0.5;exitY=1;exitDx=0;exitDy=0;" edge="1" parent="1" source="57">
                    <mxGeometry relative="1" as="geometry">
                        <mxPoint x="559.3333333333335" y="273" as="targetPoint"/>
                    </mxGeometry>
                </mxCell>
                <mxCell id="57" value="add one unit to amount_3" style="rounded=1;whiteSpace=wrap;html=1;" vertex="1" parent="1">
                    <mxGeometry x="500" y="163" width="120" height="60" as="geometry"/>
                </mxCell>
                <mxCell id="58" value="amount_enter_c text becomes amount_3" style="rounded=1;whiteSpace=wrap;html=1;" vertex="1" parent="1">
                    <mxGeometry x="500" y="273" width="120" height="60" as="geometry"/>
                </mxCell>
                <mxCell id="59" style="edgeStyle=none;html=1;exitX=0.5;exitY=1;exitDx=0;exitDy=0;" edge="1" parent="1" source="60">
                    <mxGeometry relative="1" as="geometry">
                        <mxPoint x="719.3333333333335" y="163" as="targetPoint"/>
                    </mxGeometry>
                </mxCell>
                <mxCell id="60" value="add_4" style="ellipse;whiteSpace=wrap;html=1;" vertex="1" parent="1">
                    <mxGeometry x="660" y="36" width="120" height="80" as="geometry"/>
                </mxCell>
                <mxCell id="61" style="edgeStyle=none;html=1;exitX=0.5;exitY=1;exitDx=0;exitDy=0;" edge="1" parent="1" source="62">
                    <mxGeometry relative="1" as="geometry">
                        <mxPoint x="719.3333333333335" y="273" as="targetPoint"/>
                    </mxGeometry>
                </mxCell>
                <mxCell id="62" value="add one unit to amount_4" style="rounded=1;whiteSpace=wrap;html=1;" vertex="1" parent="1">
                    <mxGeometry x="660" y="163" width="120" height="60" as="geometry"/>
                </mxCell>
                <mxCell id="63" value="amount_enter_d text becomes amount_4" style="rounded=1;whiteSpace=wrap;html=1;" vertex="1" parent="1">
                    <mxGeometry x="660" y="273" width="120" height="60" as="geometry"/>
                </mxCell>
                <mxCell id="64" style="edgeStyle=none;html=1;exitX=0.5;exitY=1;exitDx=0;exitDy=0;" edge="1" parent="1" source="65">
                    <mxGeometry relative="1" as="geometry">
                        <mxPoint x="869.3333333333335" y="163" as="targetPoint"/>
                    </mxGeometry>
                </mxCell>
                <mxCell id="65" value="add_5" style="ellipse;whiteSpace=wrap;html=1;" vertex="1" parent="1">
                    <mxGeometry x="810" y="36" width="120" height="80" as="geometry"/>
                </mxCell>
                <mxCell id="66" style="edgeStyle=none;html=1;exitX=0.5;exitY=1;exitDx=0;exitDy=0;" edge="1" parent="1" source="67">
                    <mxGeometry relative="1" as="geometry">
                        <mxPoint x="869.3333333333335" y="273" as="targetPoint"/>
                    </mxGeometry>
                </mxCell>
                <mxCell id="67" value="add one unit to amount_5" style="rounded=1;whiteSpace=wrap;html=1;" vertex="1" parent="1">
                    <mxGeometry x="810" y="163" width="120" height="60" as="geometry"/>
                </mxCell>
                <mxCell id="68" value="amount_enter_e text becomes amount_5" style="rounded=1;whiteSpace=wrap;html=1;" vertex="1" parent="1">
                    <mxGeometry x="810" y="273" width="120" height="60" as="geometry"/>
                </mxCell>
                <mxCell id="69" style="edgeStyle=none;html=1;exitX=0.5;exitY=1;exitDx=0;exitDy=0;entryX=0.5;entryY=0;entryDx=0;entryDy=0;" edge="1" parent="1" source="70" target="72">
                    <mxGeometry relative="1" as="geometry">
                        <mxPoint x="2429.3333333333335" y="703" as="targetPoint"/>
                    </mxGeometry>
                </mxCell>
                <mxCell id="70" value="calculate" style="ellipse;whiteSpace=wrap;html=1;" vertex="1" parent="1">
                    <mxGeometry x="2390" y="579" width="120" height="80" as="geometry"/>
                </mxCell>
                <mxCell id="71" style="edgeStyle=none;html=1;exitX=0.5;exitY=1;exitDx=0;exitDy=0;entryX=0.5;entryY=0;entryDx=0;entryDy=0;" edge="1" parent="1" source="72" target="73">
                    <mxGeometry relative="1" as="geometry">
                        <mxPoint x="2429.3333333333335" y="813" as="targetPoint"/>
                    </mxGeometry>
                </mxCell>
                <mxCell id="72" value="total&amp;nbsp; = amount_1 * 2 + amount_2 + amount_3 + amount_4 / 2 + amount_5 /2" style="rounded=1;whiteSpace=wrap;html=1;" vertex="1" parent="1">
                    <mxGeometry x="2370" y="703" width="160" height="83" as="geometry"/>
                </mxCell>
                <mxCell id="73" value="amount_enter_a text becomes amount_1" style="rounded=1;whiteSpace=wrap;html=1;" vertex="1" parent="1">
                    <mxGeometry x="2390" y="813" width="120" height="60" as="geometry"/>
                </mxCell>
                <mxCell id="74" style="edgeStyle=none;html=1;exitX=0.5;exitY=1;exitDx=0;exitDy=0;entryX=0.5;entryY=0;entryDx=0;entryDy=0;" edge="1" parent="1" source="75" target="3">
                    <mxGeometry relative="1" as="geometry">
                        <mxPoint x="91" y="319" as="targetPoint"/>
                    </mxGeometry>
                </mxCell>
                <mxCell id="75" value="Initialize widgets" style="rounded=1;whiteSpace=wrap;html=1;" vertex="1" parent="1">
                    <mxGeometry x="21" y="136" width="120" height="60" as="geometry"/>
                </mxCell>
                <mxCell id="76" value="" style="edgeStyle=none;html=1;" edge="1" parent="1" source="53">
                    <mxGeometry relative="1" as="geometry">
                        <mxPoint x="410" y="379" as="targetPoint"/>
                        <mxPoint x="410" y="336" as="sourcePoint"/>
                    </mxGeometry>
                </mxCell>
                <mxCell id="77" value="Call calculate()" style="ellipse;whiteSpace=wrap;html=1;" vertex="1" parent="1">
                    <mxGeometry x="350" y="379" width="120" height="80" as="geometry"/>
                </mxCell>
                <mxCell id="79" value="" style="edgeStyle=none;html=1;" edge="1" parent="1" target="81">
                    <mxGeometry relative="1" as="geometry">
                        <mxPoint x="250" y="333" as="sourcePoint"/>
                    </mxGeometry>
                </mxCell>
                <mxCell id="80" value="" style="edgeStyle=none;html=1;" edge="1" parent="1">
                    <mxGeometry relative="1" as="geometry">
                        <mxPoint x="250" y="379" as="targetPoint"/>
                        <mxPoint x="250" y="333" as="sourcePoint"/>
                    </mxGeometry>
                </mxCell>
                <mxCell id="81" value="Call calculate()" style="ellipse;whiteSpace=wrap;html=1;" vertex="1" parent="1">
                    <mxGeometry x="190" y="379" width="120" height="80" as="geometry"/>
                </mxCell>
                <mxCell id="82" value="" style="edgeStyle=none;html=1;" edge="1" parent="1" target="84">
                    <mxGeometry relative="1" as="geometry">
                        <mxPoint x="560" y="333" as="sourcePoint"/>
                    </mxGeometry>
                </mxCell>
                <mxCell id="83" value="" style="edgeStyle=none;html=1;" edge="1" parent="1">
                    <mxGeometry relative="1" as="geometry">
                        <mxPoint x="560" y="379" as="targetPoint"/>
                        <mxPoint x="560" y="333" as="sourcePoint"/>
                    </mxGeometry>
                </mxCell>
                <mxCell id="84" value="Call calculate()" style="ellipse;whiteSpace=wrap;html=1;" vertex="1" parent="1">
                    <mxGeometry x="500" y="379" width="120" height="80" as="geometry"/>
                </mxCell>
                <mxCell id="85" value="" style="edgeStyle=none;html=1;" edge="1" parent="1" target="87">
                    <mxGeometry relative="1" as="geometry">
                        <mxPoint x="720" y="333" as="sourcePoint"/>
                    </mxGeometry>
                </mxCell>
                <mxCell id="86" value="" style="edgeStyle=none;html=1;" edge="1" parent="1">
                    <mxGeometry relative="1" as="geometry">
                        <mxPoint x="720" y="379" as="targetPoint"/>
                        <mxPoint x="720" y="333" as="sourcePoint"/>
                    </mxGeometry>
                </mxCell>
                <mxCell id="87" value="Call calculate()" style="ellipse;whiteSpace=wrap;html=1;" vertex="1" parent="1">
                    <mxGeometry x="660" y="379" width="120" height="80" as="geometry"/>
                </mxCell>
                <mxCell id="88" value="" style="edgeStyle=none;html=1;" edge="1" parent="1" target="90">
                    <mxGeometry relative="1" as="geometry">
                        <mxPoint x="870" y="333" as="sourcePoint"/>
                    </mxGeometry>
                </mxCell>
                <mxCell id="89" value="" style="edgeStyle=none;html=1;" edge="1" parent="1">
                    <mxGeometry relative="1" as="geometry">
                        <mxPoint x="870" y="379" as="targetPoint"/>
                        <mxPoint x="870" y="333" as="sourcePoint"/>
                    </mxGeometry>
                </mxCell>
                <mxCell id="90" value="Call calculate()" style="ellipse;whiteSpace=wrap;html=1;" vertex="1" parent="1">
                    <mxGeometry x="810" y="379" width="120" height="80" as="geometry"/>
                </mxCell>
                <mxCell id="95" value="Yes" style="edgeStyle=none;html=1;exitX=0.5;exitY=1;exitDx=0;exitDy=0;" edge="1" parent="1" source="97">
                    <mxGeometry relative="1" as="geometry">
                        <mxPoint x="1620" y="716" as="targetPoint"/>
                    </mxGeometry>
                </mxCell>
                <mxCell id="96" value="No" style="edgeStyle=none;html=1;exitX=1;exitY=0.5;exitDx=0;exitDy=0;" edge="1" parent="1" source="97">
                    <mxGeometry relative="1" as="geometry">
                        <mxPoint x="1740.0000000000005" y="609.1111111111111" as="targetPoint"/>
                    </mxGeometry>
                </mxCell>
                <mxCell id="97" value="Less Pink flavor button&amp;nbsp;&lt;span style=&quot;background-color: transparent;&quot;&gt;clikced?&lt;/span&gt;" style="rhombus;whiteSpace=wrap;html=1;" vertex="1" parent="1">
                    <mxGeometry x="1570" y="559" width="100" height="100" as="geometry"/>
                </mxCell>
                <mxCell id="98" value="Call less_2()" style="ellipse;whiteSpace=wrap;html=1;" vertex="1" parent="1">
                    <mxGeometry x="1560" y="716" width="120" height="80" as="geometry"/>
                </mxCell>
                <mxCell id="99" value="Yes" style="edgeStyle=none;html=1;exitX=0.5;exitY=1;exitDx=0;exitDy=0;" edge="1" parent="1" source="101">
                    <mxGeometry relative="1" as="geometry">
                        <mxPoint x="1790" y="716" as="targetPoint"/>
                    </mxGeometry>
                </mxCell>
                <mxCell id="100" value="No" style="edgeStyle=none;html=1;exitX=1;exitY=0.5;exitDx=0;exitDy=0;" edge="1" parent="1" source="101">
                    <mxGeometry relative="1" as="geometry">
                        <mxPoint x="1910.0000000000005" y="609.1111111111111" as="targetPoint"/>
                    </mxGeometry>
                </mxCell>
                <mxCell id="101" value="Less Large cup button&amp;nbsp;&lt;span style=&quot;background-color: transparent;&quot;&gt;clikced?&lt;/span&gt;" style="rhombus;whiteSpace=wrap;html=1;" vertex="1" parent="1">
                    <mxGeometry x="1740" y="559" width="100" height="100" as="geometry"/>
                </mxCell>
                <mxCell id="102" value="Call less_3()" style="ellipse;whiteSpace=wrap;html=1;" vertex="1" parent="1">
                    <mxGeometry x="1730" y="716" width="120" height="80" as="geometry"/>
                </mxCell>
                <mxCell id="103" value="Yes" style="edgeStyle=none;html=1;exitX=0.5;exitY=1;exitDx=0;exitDy=0;" edge="1" parent="1" source="105">
                    <mxGeometry relative="1" as="geometry">
                        <mxPoint x="1960" y="716" as="targetPoint"/>
                    </mxGeometry>
                </mxCell>
                <mxCell id="104" value="No" style="edgeStyle=none;html=1;exitX=1;exitY=0.5;exitDx=0;exitDy=0;" edge="1" parent="1" source="105">
                    <mxGeometry relative="1" as="geometry">
                        <mxPoint x="2080.0000000000005" y="609.1111111111111" as="targetPoint"/>
                    </mxGeometry>
                </mxCell>
                <mxCell id="105" value="Less Straw&lt;span style=&quot;font-family: monospace; font-size: 0px; text-align: start; text-wrap-mode: nowrap;&quot;&gt;%3CmxGraphModel%3E%3Croot%3E%3CmxCell%20id%3D%220%22%2F%3E%3CmxCell%20id%3D%221%22%20parent%3D%220%22%2F%3E%3CmxCell%20id%3D%222%22%20value%3D%22Yes%22%20style%3D%22edgeStyle%3Dnone%3Bhtml%3D1%3BexitX%3D0.5%3BexitY%3D1%3BexitDx%3D0%3BexitDy%3D0%3B%22%20edge%3D%221%22%20source%3D%224%22%20parent%3D%221%22%3E%3CmxGeometry%20relative%3D%221%22%20as%3D%22geometry%22%3E%3CmxPoint%20x%3D%221450%22%20y%3D%22716%22%20as%3D%22targetPoint%22%2F%3E%3C%2FmxGeometry%3E%3C%2FmxCell%3E%3CmxCell%20id%3D%223%22%20value%3D%22No%22%20style%3D%22edgeStyle%3Dnone%3Bhtml%3D1%3BexitX%3D1%3BexitY%3D0.5%3BexitDx%3D0%3BexitDy%3D0%3B%22%20edge%3D%221%22%20source%3D%224%22%20parent%3D%221%22%3E%3CmxGeometry%20relative%3D%221%22%20as%3D%22geometry%22%3E%3CmxPoint%20x%3D%221570.0000000000005%22%20y%3D%22609.1111111111111%22%20as%3D%22targetPoint%22%2F%3E%3C%2FmxGeometry%3E%3C%2FmxCell%3E%3CmxCell%20id%3D%224%22%20value%3D%22Less%20Lemonade%20button%26amp%3Bnbsp%3B%26lt%3Bspan%20style%3D%26quot%3Bbackground-color%3A%20transparent%3B%26quot%3B%26gt%3Bclikced%3F%26lt%3B%2Fspan%26gt%3B%22%20style%3D%22rhombus%3BwhiteSpace%3Dwrap%3Bhtml%3D1%3B%22%20vertex%3D%221%22%20parent%3D%221%22%3E%3CmxGeometry%20x%3D%221400%22%20y%3D%22559%22%20width%3D%22100%22%20height%3D%22100%22%20as%3D%22geometry%22%2F%3E%3C%2FmxCell%3E%3CmxCell%20id%3D%225%22%20value%3D%22Call%20less_1()%22%20style%3D%22ellipse%3BwhiteSpace%3Dwrap%3Bhtml%3D1%3B%22%20vertex%3D%221%22%20parent%3D%221%22%3E%3CmxGeometry%20x%3D%221390%22%20y%3D%22716%22%20width%3D%22120%22%20height%3D%2280%22%20as%3D%22geometry%22%2F%3E%3C%2FmxCell%3E%3C%2Froot%3E%3C%2FmxGraphModel%3E&lt;/span&gt;&amp;nbsp;&lt;div&gt;button&amp;nbsp;&lt;span style=&quot;background-color: transparent;&quot;&gt;clikced?&lt;/span&gt;&lt;/div&gt;" style="rhombus;whiteSpace=wrap;html=1;" vertex="1" parent="1">
                    <mxGeometry x="1910" y="559" width="100" height="100" as="geometry"/>
                </mxCell>
                <mxCell id="106" value="Call less_4()" style="ellipse;whiteSpace=wrap;html=1;" vertex="1" parent="1">
                    <mxGeometry x="1900" y="716" width="120" height="80" as="geometry"/>
                </mxCell>
                <mxCell id="107" value="Yes" style="edgeStyle=none;html=1;exitX=0.5;exitY=1;exitDx=0;exitDy=0;" edge="1" parent="1" source="109">
                    <mxGeometry relative="1" as="geometry">
                        <mxPoint x="2130" y="716" as="targetPoint"/>
                    </mxGeometry>
                </mxCell>
                <mxCell id="108" value="" style="edgeStyle=none;html=1;entryX=0.5;entryY=1;entryDx=0;entryDy=0;exitX=1;exitY=0.5;exitDx=0;exitDy=0;" edge="1" parent="1" source="109" target="14">
                    <mxGeometry x="-0.0004" relative="1" as="geometry">
                        <mxPoint x="469.9999999999999" y="770.7" as="targetPoint"/>
                        <mxPoint x="2269.89" y="720" as="sourcePoint"/>
                        <Array as="points">
                            <mxPoint x="2260" y="609"/>
                            <mxPoint x="2260" y="840"/>
                            <mxPoint x="391" y="840"/>
                        </Array>
                        <mxPoint as="offset"/>
                    </mxGeometry>
                </mxCell>
                <mxCell id="116" value="No" style="edgeLabel;html=1;align=center;verticalAlign=middle;resizable=0;points=[];" vertex="1" connectable="0" parent="108">
                    <mxGeometry x="-0.9704" y="-1" relative="1" as="geometry">
                        <mxPoint as="offset"/>
                    </mxGeometry>
                </mxCell>
                <mxCell id="109" value="Less Ice button&amp;nbsp;&lt;span style=&quot;background-color: transparent;&quot;&gt;clikced?&lt;/span&gt;" style="rhombus;whiteSpace=wrap;html=1;" vertex="1" parent="1">
                    <mxGeometry x="2080" y="559" width="100" height="100" as="geometry"/>
                </mxCell>
                <mxCell id="110" value="Call less_5()" style="ellipse;whiteSpace=wrap;html=1;" vertex="1" parent="1">
                    <mxGeometry x="2070" y="716" width="120" height="80" as="geometry"/>
                </mxCell>
                <mxCell id="117" style="edgeStyle=none;html=1;exitX=0.5;exitY=1;exitDx=0;exitDy=0;" edge="1" parent="1" source="118">
                    <mxGeometry relative="1" as="geometry">
                        <mxPoint x="1049" y="120" as="targetPoint"/>
                    </mxGeometry>
                </mxCell>
                <mxCell id="118" value="less_1" style="ellipse;whiteSpace=wrap;html=1;" vertex="1" parent="1">
                    <mxGeometry x="990" width="120" height="80" as="geometry"/>
                </mxCell>
                <mxCell id="119" style="edgeStyle=none;html=1;exitX=0.5;exitY=1;exitDx=0;exitDy=0;" edge="1" parent="1" source="120">
                    <mxGeometry relative="1" as="geometry">
                        <mxPoint x="1049.3333333333335" y="373" as="targetPoint"/>
                    </mxGeometry>
                </mxCell>
                <mxCell id="120" value="minus one unit to amount_1" style="rounded=1;whiteSpace=wrap;html=1;" vertex="1" parent="1">
                    <mxGeometry x="990" y="263" width="120" height="60" as="geometry"/>
                </mxCell>
                <mxCell id="121" value="amount_enter_a text becomes amount_1" style="rounded=1;whiteSpace=wrap;html=1;" vertex="1" parent="1">
                    <mxGeometry x="990" y="373" width="120" height="60" as="geometry"/>
                </mxCell>
                <mxCell id="145" value="" style="edgeStyle=none;html=1;" edge="1" parent="1" target="147">
                    <mxGeometry relative="1" as="geometry">
                        <mxPoint x="1050" y="433" as="sourcePoint"/>
                    </mxGeometry>
                </mxCell>
                <mxCell id="146" value="" style="edgeStyle=none;html=1;" edge="1" parent="1">
                    <mxGeometry relative="1" as="geometry">
                        <mxPoint x="1050" y="479" as="targetPoint"/>
                        <mxPoint x="1050" y="433" as="sourcePoint"/>
                    </mxGeometry>
                </mxCell>
                <mxCell id="147" value="Call calculate()" style="ellipse;whiteSpace=wrap;html=1;" vertex="1" parent="1">
                    <mxGeometry x="990" y="479" width="120" height="80" as="geometry"/>
                </mxCell>
                <mxCell id="158" value="Yes" style="edgeStyle=none;html=1;exitX=0.5;exitY=1;exitDx=0;exitDy=0;entryX=0.5;entryY=0;entryDx=0;entryDy=0;" edge="1" parent="1" source="157" target="120">
                    <mxGeometry relative="1" as="geometry"/>
                </mxCell>
                <mxCell id="159" value="No" style="edgeStyle=none;html=1;exitX=1;exitY=0.5;exitDx=0;exitDy=0;" edge="1" parent="1" source="157">
                    <mxGeometry relative="1" as="geometry">
                        <mxPoint x="1150" y="169" as="targetPoint"/>
                    </mxGeometry>
                </mxCell>
                <mxCell id="157" value="is amount_&amp;nbsp;&lt;div&gt;&amp;gt; 0?&lt;/div&gt;" style="rhombus;whiteSpace=wrap;html=1;" vertex="1" parent="1">
                    <mxGeometry x="1000" y="119" width="100" height="100" as="geometry"/>
                </mxCell>
                <mxCell id="160" value="amount_ 1 = amount_1" style="rounded=1;whiteSpace=wrap;html=1;" vertex="1" parent="1">
                    <mxGeometry x="1150" y="139" width="120" height="60" as="geometry"/>
                </mxCell>
                <mxCell id="161" style="edgeStyle=none;html=1;exitX=0.5;exitY=1;exitDx=0;exitDy=0;" edge="1" parent="1" source="162">
                    <mxGeometry relative="1" as="geometry">
                        <mxPoint x="1339" y="120" as="targetPoint"/>
                    </mxGeometry>
                </mxCell>
                <mxCell id="162" value="less_2" style="ellipse;whiteSpace=wrap;html=1;" vertex="1" parent="1">
                    <mxGeometry x="1280" width="120" height="80" as="geometry"/>
                </mxCell>
                <mxCell id="163" style="edgeStyle=none;html=1;exitX=0.5;exitY=1;exitDx=0;exitDy=0;" edge="1" parent="1" source="164">
                    <mxGeometry relative="1" as="geometry">
                        <mxPoint x="1339.3333333333335" y="373" as="targetPoint"/>
                    </mxGeometry>
                </mxCell>
                <mxCell id="164" value="minus one unit to amount_2" style="rounded=1;whiteSpace=wrap;html=1;" vertex="1" parent="1">
                    <mxGeometry x="1280" y="263" width="120" height="60" as="geometry"/>
                </mxCell>
                <mxCell id="165" value="amount_enter_b text becomes amount_2" style="rounded=1;whiteSpace=wrap;html=1;" vertex="1" parent="1">
                    <mxGeometry x="1280" y="373" width="120" height="60" as="geometry"/>
                </mxCell>
                <mxCell id="166" value="" style="edgeStyle=none;html=1;" edge="1" parent="1" target="168">
                    <mxGeometry relative="1" as="geometry">
                        <mxPoint x="1340" y="433" as="sourcePoint"/>
                    </mxGeometry>
                </mxCell>
                <mxCell id="167" value="" style="edgeStyle=none;html=1;" edge="1" parent="1">
                    <mxGeometry relative="1" as="geometry">
                        <mxPoint x="1340" y="479" as="targetPoint"/>
                        <mxPoint x="1340" y="433" as="sourcePoint"/>
                    </mxGeometry>
                </mxCell>
                <mxCell id="168" value="Call calculate()" style="ellipse;whiteSpace=wrap;html=1;" vertex="1" parent="1">
                    <mxGeometry x="1280" y="479" width="120" height="80" as="geometry"/>
                </mxCell>
                <mxCell id="169" value="Yes" style="edgeStyle=none;html=1;exitX=0.5;exitY=1;exitDx=0;exitDy=0;entryX=0.5;entryY=0;entryDx=0;entryDy=0;" edge="1" parent="1" source="171" target="164">
                    <mxGeometry relative="1" as="geometry"/>
                </mxCell>
                <mxCell id="170" value="No" style="edgeStyle=none;html=1;exitX=1;exitY=0.5;exitDx=0;exitDy=0;" edge="1" parent="1" source="171">
                    <mxGeometry relative="1" as="geometry">
                        <mxPoint x="1440" y="169" as="targetPoint"/>
                    </mxGeometry>
                </mxCell>
                <mxCell id="171" value="is amount_2&amp;nbsp;&lt;div&gt;&amp;gt; 0?&lt;/div&gt;" style="rhombus;whiteSpace=wrap;html=1;" vertex="1" parent="1">
                    <mxGeometry x="1290" y="119" width="100" height="100" as="geometry"/>
                </mxCell>
                <mxCell id="172" value="amount_2 = amount_2" style="rounded=1;whiteSpace=wrap;html=1;" vertex="1" parent="1">
                    <mxGeometry x="1440" y="139" width="120" height="60" as="geometry"/>
                </mxCell>
                <mxCell id="173" style="edgeStyle=none;html=1;exitX=0.5;exitY=1;exitDx=0;exitDy=0;" edge="1" parent="1" source="174">
                    <mxGeometry relative="1" as="geometry">
                        <mxPoint x="1639" y="120" as="targetPoint"/>
                    </mxGeometry>
                </mxCell>
                <mxCell id="174" value="less_3" style="ellipse;whiteSpace=wrap;html=1;" vertex="1" parent="1">
                    <mxGeometry x="1580" width="120" height="80" as="geometry"/>
                </mxCell>
                <mxCell id="175" style="edgeStyle=none;html=1;exitX=0.5;exitY=1;exitDx=0;exitDy=0;" edge="1" parent="1" source="176">
                    <mxGeometry relative="1" as="geometry">
                        <mxPoint x="1639.3333333333335" y="373" as="targetPoint"/>
                    </mxGeometry>
                </mxCell>
                <mxCell id="176" value="minus one unit to amount_3" style="rounded=1;whiteSpace=wrap;html=1;" vertex="1" parent="1">
                    <mxGeometry x="1580" y="263" width="120" height="60" as="geometry"/>
                </mxCell>
                <mxCell id="177" value="amount_enter_c text becomes amount_3" style="rounded=1;whiteSpace=wrap;html=1;" vertex="1" parent="1">
                    <mxGeometry x="1580" y="373" width="120" height="60" as="geometry"/>
                </mxCell>
                <mxCell id="178" value="" style="edgeStyle=none;html=1;" edge="1" parent="1" target="180">
                    <mxGeometry relative="1" as="geometry">
                        <mxPoint x="1640" y="433" as="sourcePoint"/>
                    </mxGeometry>
                </mxCell>
                <mxCell id="179" value="" style="edgeStyle=none;html=1;" edge="1" parent="1">
                    <mxGeometry relative="1" as="geometry">
                        <mxPoint x="1640" y="479" as="targetPoint"/>
                        <mxPoint x="1640" y="433" as="sourcePoint"/>
                    </mxGeometry>
                </mxCell>
                <mxCell id="180" value="Call calculate()" style="ellipse;whiteSpace=wrap;html=1;" vertex="1" parent="1">
                    <mxGeometry x="1580" y="479" width="120" height="80" as="geometry"/>
                </mxCell>
                <mxCell id="181" value="Yes" style="edgeStyle=none;html=1;exitX=0.5;exitY=1;exitDx=0;exitDy=0;entryX=0.5;entryY=0;entryDx=0;entryDy=0;" edge="1" parent="1" source="183" target="176">
                    <mxGeometry relative="1" as="geometry"/>
                </mxCell>
                <mxCell id="182" value="No" style="edgeStyle=none;html=1;exitX=1;exitY=0.5;exitDx=0;exitDy=0;" edge="1" parent="1" source="183">
                    <mxGeometry relative="1" as="geometry">
                        <mxPoint x="1740" y="169" as="targetPoint"/>
                    </mxGeometry>
                </mxCell>
                <mxCell id="183" value="is amount_3&amp;nbsp;&lt;div&gt;&amp;gt; 0?&lt;/div&gt;" style="rhombus;whiteSpace=wrap;html=1;" vertex="1" parent="1">
                    <mxGeometry x="1590" y="119" width="100" height="100" as="geometry"/>
                </mxCell>
                <mxCell id="184" value="amount_3 = amount_3" style="rounded=1;whiteSpace=wrap;html=1;" vertex="1" parent="1">
                    <mxGeometry x="1740" y="139" width="120" height="60" as="geometry"/>
                </mxCell>
                <mxCell id="198" style="edgeStyle=none;html=1;exitX=0.5;exitY=1;exitDx=0;exitDy=0;" edge="1" parent="1" source="199">
                    <mxGeometry relative="1" as="geometry">
                        <mxPoint x="1959" y="120" as="targetPoint"/>
                    </mxGeometry>
                </mxCell>
                <mxCell id="199" value="less_4" style="ellipse;whiteSpace=wrap;html=1;" vertex="1" parent="1">
                    <mxGeometry x="1900" width="120" height="80" as="geometry"/>
                </mxCell>
                <mxCell id="200" style="edgeStyle=none;html=1;exitX=0.5;exitY=1;exitDx=0;exitDy=0;" edge="1" parent="1" source="201">
                    <mxGeometry relative="1" as="geometry">
                        <mxPoint x="1959.3333333333335" y="373" as="targetPoint"/>
                    </mxGeometry>
                </mxCell>
                <mxCell id="201" value="minus one unit to amount_4" style="rounded=1;whiteSpace=wrap;html=1;" vertex="1" parent="1">
                    <mxGeometry x="1900" y="263" width="120" height="60" as="geometry"/>
                </mxCell>
                <mxCell id="202" value="amount_enter_d text becomes amount_4" style="rounded=1;whiteSpace=wrap;html=1;" vertex="1" parent="1">
                    <mxGeometry x="1900" y="373" width="120" height="60" as="geometry"/>
                </mxCell>
                <mxCell id="203" value="" style="edgeStyle=none;html=1;" edge="1" parent="1" target="205">
                    <mxGeometry relative="1" as="geometry">
                        <mxPoint x="1960" y="433" as="sourcePoint"/>
                    </mxGeometry>
                </mxCell>
                <mxCell id="204" value="" style="edgeStyle=none;html=1;" edge="1" parent="1">
                    <mxGeometry relative="1" as="geometry">
                        <mxPoint x="1960" y="479" as="targetPoint"/>
                        <mxPoint x="1960" y="433" as="sourcePoint"/>
                    </mxGeometry>
                </mxCell>
                <mxCell id="205" value="Call calculate()" style="ellipse;whiteSpace=wrap;html=1;" vertex="1" parent="1">
                    <mxGeometry x="1900" y="479" width="120" height="80" as="geometry"/>
                </mxCell>
                <mxCell id="206" value="Yes" style="edgeStyle=none;html=1;exitX=0.5;exitY=1;exitDx=0;exitDy=0;entryX=0.5;entryY=0;entryDx=0;entryDy=0;" edge="1" parent="1" source="208" target="201">
                    <mxGeometry relative="1" as="geometry"/>
                </mxCell>
                <mxCell id="207" value="No" style="edgeStyle=none;html=1;exitX=1;exitY=0.5;exitDx=0;exitDy=0;" edge="1" parent="1" source="208">
                    <mxGeometry relative="1" as="geometry">
                        <mxPoint x="2060" y="169" as="targetPoint"/>
                    </mxGeometry>
                </mxCell>
                <mxCell id="208" value="is amount_4&amp;nbsp;&lt;div&gt;&amp;gt; 0?&lt;/div&gt;" style="rhombus;whiteSpace=wrap;html=1;" vertex="1" parent="1">
                    <mxGeometry x="1910" y="119" width="100" height="100" as="geometry"/>
                </mxCell>
                <mxCell id="209" value="amount_4 = amount_4" style="rounded=1;whiteSpace=wrap;html=1;" vertex="1" parent="1">
                    <mxGeometry x="2060" y="139" width="120" height="60" as="geometry"/>
                </mxCell>
                <mxCell id="210" style="edgeStyle=none;html=1;exitX=0.5;exitY=1;exitDx=0;exitDy=0;" edge="1" parent="1" source="211">
                    <mxGeometry relative="1" as="geometry">
                        <mxPoint x="2299" y="120" as="targetPoint"/>
                    </mxGeometry>
                </mxCell>
                <mxCell id="211" value="less_5" style="ellipse;whiteSpace=wrap;html=1;" vertex="1" parent="1">
                    <mxGeometry x="2240" width="120" height="80" as="geometry"/>
                </mxCell>
                <mxCell id="212" style="edgeStyle=none;html=1;exitX=0.5;exitY=1;exitDx=0;exitDy=0;" edge="1" parent="1" source="213">
                    <mxGeometry relative="1" as="geometry">
                        <mxPoint x="2299.3333333333335" y="373" as="targetPoint"/>
                    </mxGeometry>
                </mxCell>
                <mxCell id="213" value="minus one unit to amount_5" style="rounded=1;whiteSpace=wrap;html=1;" vertex="1" parent="1">
                    <mxGeometry x="2240" y="263" width="120" height="60" as="geometry"/>
                </mxCell>
                <mxCell id="214" value="amount_enter_e text becomes amount_5" style="rounded=1;whiteSpace=wrap;html=1;" vertex="1" parent="1">
                    <mxGeometry x="2240" y="373" width="120" height="60" as="geometry"/>
                </mxCell>
                <mxCell id="215" value="" style="edgeStyle=none;html=1;" edge="1" parent="1" target="217">
                    <mxGeometry relative="1" as="geometry">
                        <mxPoint x="2300" y="433" as="sourcePoint"/>
                    </mxGeometry>
                </mxCell>
                <mxCell id="216" value="" style="edgeStyle=none;html=1;" edge="1" parent="1">
                    <mxGeometry relative="1" as="geometry">
                        <mxPoint x="2300" y="479" as="targetPoint"/>
                        <mxPoint x="2300" y="433" as="sourcePoint"/>
                    </mxGeometry>
                </mxCell>
                <mxCell id="217" value="Call calculate()" style="ellipse;whiteSpace=wrap;html=1;" vertex="1" parent="1">
                    <mxGeometry x="2240" y="479" width="120" height="80" as="geometry"/>
                </mxCell>
                <mxCell id="218" value="Yes" style="edgeStyle=none;html=1;exitX=0.5;exitY=1;exitDx=0;exitDy=0;entryX=0.5;entryY=0;entryDx=0;entryDy=0;" edge="1" parent="1" source="220" target="213">
                    <mxGeometry relative="1" as="geometry"/>
                </mxCell>
                <mxCell id="219" value="No" style="edgeStyle=none;html=1;exitX=1;exitY=0.5;exitDx=0;exitDy=0;" edge="1" parent="1" source="220">
                    <mxGeometry relative="1" as="geometry">
                        <mxPoint x="2400" y="169" as="targetPoint"/>
                    </mxGeometry>
                </mxCell>
                <mxCell id="220" value="is amount_5&amp;nbsp;&lt;div&gt;&amp;gt; 0?&lt;/div&gt;" style="rhombus;whiteSpace=wrap;html=1;" vertex="1" parent="1">
                    <mxGeometry x="2250" y="119" width="100" height="100" as="geometry"/>
                </mxCell>
                <mxCell id="221" value="amount_5 = amount_5" style="rounded=1;whiteSpace=wrap;html=1;" vertex="1" parent="1">
                    <mxGeometry x="2400" y="139" width="120" height="60" as="geometry"/>
                </mxCell>
            </root>
        </mxGraphModel>
    </diagram>
</mxfile>